ffmpeg started on 2025-06-16 at 16:36:39
Report written to "D:\Convert\FFMetrics\reports\ssim_report-6.txt"
Log level: 32
Command line:
ffmpeg -hide_banner -nostdin -i "G:\\\xc0\xed\xe8\xec\xe5\\[\xd2\xee\xef]\\\xd0\xfb\xf6\xe0\xf0\xfc-\xe2\xe0\xec\xef\xe8\xf0\\\xd2\xc2-1\\[JamClub] Vampire Knight - 11_HEVC.mkv" -i "G:\\\xc0\xed\xe8\xec\xe5\\[\xd2\xee\xef]\\\xd0\xfb\xf6\xe0\xf0\xfc-\xe2\xe0\xec\xef\xe8\xf0\\\xd2\xc2-1\\[JamClub] Vampire Knight - 11.mp4" -lavfi "[0:v]settb=AVTB,setpts=PTS-STARTPTS,format=pix_fmts=yuv420p10,fps=24000/1001,scale=1920:1080:flags=bicubic[main];[1:v]settb=AVTB,setpts=PTS-STARTPTS,format=pix_fmts=yuv420p,fps=24000/1001,scale=1920:1080:flags=bicubic[ref];[main][ref]ssim=eof_action=endall:stats_file='D\\:/Convert/FFMetrics/logs/ssim_logfile-6.txt'" -f null -
Input #0, matroska,webm, from 'G:\Аниме\[Топ]\Рыцарь-вампир\ТВ-1\[JamClub] Vampire Knight - 11_HEVC.mkv':
  Metadata:
    COMPATIBLE_BRANDS: isomiso2avc1mp41
    MAJOR_BRAND     : isom
    MINOR_VERSION   : 512
    ENCODER         : Lavf61.7.100
  Duration: 00:24:22.09, start: -0.001000, bitrate: 847 kb/s
  Stream #0:0: Video: hevc (Main 10), yuv420p10le(tv, bt709, progressive), 1920x1080 [SAR 1:1 DAR 16:9], 23.98 fps, 23.98 tbr, 1k tbn (default)
      Metadata:
        HANDLER_NAME    : VideoHandler
        VENDOR_ID       : [0][0][0][0]
        ENCODER         : Lavc61.19.100 libx265
        BPS             : 648749
        DURATION        : 00:24:22.043708333
        NUMBER_OF_FRAMES: 43684
        NUMBER_OF_BYTES : 118562523
        _STATISTICS_WRITING_APP: mkvpropedit v66.0.0 ('Josie') 64-bit
        _STATISTICS_WRITING_DATE_UTC: 2025-06-16 09:18:39
        _STATISTICS_TAGS: BPS DURATION NUMBER_OF_FRAMES NUMBER_OF_BYTES
  Stream #0:1(eng): Audio: aac (LC), 48000 Hz, stereo, fltp (default)
      Metadata:
        HANDLER_NAME    : SoundHandler
        VENDOR_ID       : [0][0][0][0]
        ENCODER         : Lavc61.19.100 aac
        BPS             : 194611
        DURATION        : 00:24:22.053000000
        NUMBER_OF_FRAMES: 68535
        NUMBER_OF_BYTES : 35566545
        _STATISTICS_WRITING_APP: mkvpropedit v66.0.0 ('Josie') 64-bit
        _STATISTICS_WRITING_DATE_UTC: 2025-06-16 09:18:39
        _STATISTICS_TAGS: BPS DURATION NUMBER_OF_FRAMES NUMBER_OF_BYTES
Input #1, mov,mp4,m4a,3gp,3g2,mj2, from 'G:\Аниме\[Топ]\Рыцарь-вампир\ТВ-1\[JamClub] Vampire Knight - 11.mp4':
  Metadata:
    major_brand     : isom
    minor_version   : 512
    compatible_brands: isomiso2avc1mp41
    encoder         : Lavf60.16.100
  Duration: 00:24:22.07, start: 0.000000, bitrate: 3209 kb/s
  Stream #1:0[0x1](und): Video: h264 (High) (avc1 / 0x31637661), yuv420p(progressive), 1920x1080 [SAR 1:1 DAR 16:9], 3009 kb/s, 29.88 fps, 23.98 tbr, 90k tbn (default)
      Metadata:
        handler_name    : VideoHandler
        vendor_id       : [0][0][0][0]
  Stream #1:1[0x2](eng): Audio: aac (LC) (mp4a / 0x6134706D), 48000 Hz, stereo, fltp, 191 kb/s (default)
      Metadata:
        handler_name    : SoundHandler
        vendor_id       : [0][0][0][0]
Stream mapping:
  Stream #0:0 (hevc) -> settb:default
  Stream #1:0 (h264) -> settb:default
  ssim:default -> Stream #0:0 (wrapped_avframe)
  Stream #0:1 -> #0:1 (aac (native) -> pcm_s16le (native))
Output #0, null, to 'pipe:':
  Metadata:
    COMPATIBLE_BRANDS: isomiso2avc1mp41
    MAJOR_BRAND     : isom
    MINOR_VERSION   : 512
    encoder         : Lavf61.7.100
  Stream #0:0: Video: wrapped_avframe, yuv420p10le(tv, bt709, progressive), 1920x1080 [SAR 1:1 DAR 16:9], q=2-31, 200 kb/s, 23.98 fps, 23.98 tbn
      Metadata:
        encoder         : Lavc61.19.100 wrapped_avframe
  Stream #0:1(eng): Audio: pcm_s16le, 48000 Hz, stereo, s16, 1536 kb/s (default)
      Metadata:
        HANDLER_NAME    : SoundHandler
        VENDOR_ID       : [0][0][0][0]
        _STATISTICS_TAGS: BPS DURATION NUMBER_OF_FRAMES NUMBER_OF_BYTES
        BPS             : 194611
        DURATION        : 00:24:22.053000000
        NUMBER_OF_FRAMES: 68535
        NUMBER_OF_BYTES : 35566545
        _STATISTICS_WRITING_APP: mkvpropedit v66.0.0 ('Josie') 64-bit
        _STATISTICS_WRITING_DATE_UTC: 2025-06-16 09:18:39
        encoder         : Lavc61.19.100 pcm_s16le
frame=  112 fps=0.0 q=-0.0 size=N/A time=00:00:04.67 bitrate=N/A speed=9.03x    frame=  280 fps=268 q=-0.0 size=N/A time=00:00:11.67 bitrate=N/A speed=11.2x    frame=  478 fps=309 q=-0.0 size=N/A time=00:00:19.93 bitrate=N/A speed=12.9x    frame=  720 fps=347 q=-0.0 size=N/A time=00:00:30.03 bitrate=N/A speed=14.5x    frame=  944 fps=366 q=-0.0 size=N/A time=00:00:39.37 bitrate=N/A speed=15.2x    frame= 1176 fps=380 q=-0.0 size=N/A time=00:00:49.04 bitrate=N/A speed=15.9x    frame= 1401 fps=387 q=-0.0 size=N/A time=00:00:58.43 bitrate=N/A speed=16.1x    frame= 1614 fps=391 q=-0.0 size=N/A time=00:01:07.31 bitrate=N/A speed=16.3x    frame= 1823 fps=393 q=-0.0 size=N/A time=00:01:16.03 bitrate=N/A speed=16.4x    frame= 1991 fps=385 q=-0.0 size=N/A time=00:01:23.04 bitrate=N/A speed=16.1x    frame= 2157 fps=380 q=-0.0 size=N/A time=00:01:29.96 bitrate=N/A speed=15.8x    frame= 2341 fps=378 q=-0.0 size=N/A time=00:01:37.63 bitrate=N/A speed=15.8x    frame= 2530 fps=377 q=-0.0 size=N/A time=00:01:45.52 bitrate=N/A speed=15.7x    frame= 2736 fps=379 q=-0.0 size=N/A time=00:01:54.11 bitrate=N/A speed=15.8x    frame= 2884 fps=373 q=-0.0 size=N/A time=00:02:00.28 bitrate=N/A speed=15.6x    frame= 3079 fps=373 q=-0.0 size=N/A time=00:02:08.41 bitrate=N/A speed=15.5x    frame= 3237 fps=369 q=-0.0 size=N/A time=00:02:15.00 bitrate=N/A speed=15.4x    frame= 3434 fps=370 q=-0.0 size=N/A time=00:02:23.22 bitrate=N/A speed=15.4x    frame= 3636 fps=371 q=-0.0 size=N/A time=00:02:31.65 bitrate=N/A speed=15.5x    frame= 3851 fps=373 q=-0.0 size=N/A time=00:02:40.61 bitrate=N/A speed=15.6x    frame= 4078 fps=377 q=-0.0 size=N/A time=00:02:50.08 bitrate=N/A speed=15.7x    frame= 4309 fps=380 q=-0.0 size=N/A time=00:02:59.72 bitrate=N/A speed=15.8x    frame= 4556 fps=384 q=-0.0 size=N/A time=00:03:10.02 bitrate=N/A speed=  16x    frame= 4784 fps=387 q=-0.0 size=N/A time=00:03:19.53 bitrate=N/A speed=16.1x    frame= 5034 fps=390 q=-0.0 size=N/A time=00:03:29.95 bitrate=N/A speed=16.3x    frame= 5265 fps=393 q=-0.0 size=N/A time=00:03:39.59 bitrate=N/A speed=16.4x    frame= 5513 fps=396 q=-0.0 size=N/A time=00:03:49.93 bitrate=N/A speed=16.5x    frame= 5761 fps=399 q=-0.0 size=N/A time=00:04:00.28 bitrate=N/A speed=16.6x    frame= 5991 fps=401 q=-0.0 size=N/A time=00:04:09.87 bitrate=N/A speed=16.7x    frame= 6224 fps=402 q=-0.0 size=N/A time=00:04:19.59 bitrate=N/A speed=16.8x    frame= 6464 fps=404 q=-0.0 size=N/A time=00:04:29.60 bitrate=N/A speed=16.9x    frame= 6694 fps=406 q=-0.0 size=N/A time=00:04:39.19 bitrate=N/A speed=16.9x    frame= 6932 fps=407 q=-0.0 size=N/A time=00:04:49.12 bitrate=N/A speed=  17x    frame= 7130 fps=406 q=-0.0 size=N/A time=00:04:57.38 bitrate=N/A speed=  17x    frame= 7326 fps=406 q=-0.0 size=N/A time=00:05:05.55 bitrate=N/A speed=16.9x    frame= 7563 fps=407 q=-0.0 size=N/A time=00:05:15.44 bitrate=N/A speed=  17x    frame= 7792 fps=408 q=-0.0 size=N/A time=00:05:24.99 bitrate=N/A speed=  17x    frame= 8021 fps=409 q=-0.0 size=N/A time=00:05:34.54 bitrate=N/A speed=17.1x    frame= 8260 fps=410 q=-0.0 size=N/A time=00:05:44.51 bitrate=N/A speed=17.1x    frame= 8492 fps=411 q=-0.0 size=N/A time=00:05:54.18 bitrate=N/A speed=17.2x    frame= 8724 fps=412 q=-0.0 size=N/A time=00:06:03.86 bitrate=N/A speed=17.2x    frame= 8961 fps=413 q=-0.0 size=N/A time=00:06:13.74 bitrate=N/A speed=17.2x    frame= 9203 fps=415 q=-0.0 size=N/A time=00:06:23.84 bitrate=N/A speed=17.3x    frame= 9451 fps=416 q=-0.0 size=N/A time=00:06:34.22 bitrate=N/A speed=17.4x    frame= 9674 fps=417 q=-0.0 size=N/A time=00:06:43.48 bitrate=N/A speed=17.4x    frame= 9917 fps=418 q=-0.0 size=N/A time=00:06:53.62 bitrate=N/A speed=17.4x    frame=10161 fps=419 q=-0.0 size=N/A time=00:07:03.79 bitrate=N/A speed=17.5x    frame=10412 fps=420 q=-0.0 size=N/A time=00:07:14.26 bitrate=N/A speed=17.5x    frame=10660 fps=422 q=-0.0 size=N/A time=00:07:24.61 bitrate=N/A speed=17.6x    frame=10890 fps=422 q=-0.0 size=N/A time=00:07:34.20 bitrate=N/A speed=17.6x    frame=11138 fps=423 q=-0.0 size=N/A time=00:07:44.54 bitrate=N/A speed=17.6x    frame=11382 fps=424 q=-0.0 size=N/A time=00:07:54.72 bitrate=N/A speed=17.7x    frame=11619 fps=425 q=-0.0 size=N/A time=00:08:04.60 bitrate=N/A speed=17.7x    frame=11862 fps=426 q=-0.0 size=N/A time=00:08:14.74 bitrate=N/A speed=17.7x    frame=12101 fps=426 q=-0.0 size=N/A time=00:08:24.71 bitrate=N/A speed=17.8x    frame=12331 fps=427 q=-0.0 size=N/A time=00:08:34.30 bitrate=N/A speed=17.8x    frame=12566 fps=427 q=-0.0 size=N/A time=00:08:44.10 bitrate=N/A speed=17.8x    frame=12794 fps=427 q=-0.0 size=N/A time=00:08:53.61 bitrate=N/A speed=17.8x    frame=13029 fps=428 q=-0.0 size=N/A time=00:09:03.41 bitrate=N/A speed=17.8x    frame=13269 fps=428 q=-0.0 size=N/A time=00:09:13.42 bitrate=N/A speed=17.9x    frame=13508 fps=429 q=-0.0 size=N/A time=00:09:23.39 bitrate=N/A speed=17.9x    frame=13733 fps=429 q=-0.0 size=N/A time=00:09:32.78 bitrate=N/A speed=17.9x    frame=13973 fps=430 q=-0.0 size=N/A time=00:09:42.79 bitrate=N/A speed=17.9x    frame=14215 fps=430 q=-0.0 size=N/A time=00:09:52.88 bitrate=N/A speed=17.9x    frame=14451 fps=431 q=-0.0 size=N/A time=00:10:02.72 bitrate=N/A speed=  18x    frame=14689 fps=431 q=-0.0 size=N/A time=00:10:12.65 bitrate=N/A speed=  18x    frame=14918 fps=431 q=-0.0 size=N/A time=00:10:22.20 bitrate=N/A speed=  18x    frame=15173 fps=432 q=-0.0 size=N/A time=00:10:32.84 bitrate=N/A speed=  18x    frame=15422 fps=433 q=-0.0 size=N/A time=00:10:43.22 bitrate=N/A speed=18.1x    frame=15662 fps=433 q=-0.0 size=N/A time=00:10:53.23 bitrate=N/A speed=18.1x    frame=15906 fps=434 q=-0.0 size=N/A time=00:11:03.41 bitrate=N/A speed=18.1x    frame=16159 fps=435 q=-0.0 size=N/A time=00:11:13.96 bitrate=N/A speed=18.1x    frame=16401 fps=435 q=-0.0 size=N/A time=00:11:24.05 bitrate=N/A speed=18.1x    frame=16627 fps=435 q=-0.0 size=N/A time=00:11:33.48 bitrate=N/A speed=18.2x    frame=16871 fps=436 q=-0.0 size=N/A time=00:11:43.66 bitrate=N/A speed=18.2x    frame=17094 fps=436 q=-0.0 size=N/A time=00:11:52.96 bitrate=N/A speed=18.2x    frame=17322 fps=436 q=-0.0 size=N/A time=00:12:02.47 bitrate=N/A speed=18.2x    frame=17558 fps=436 q=-0.0 size=N/A time=00:12:12.31 bitrate=N/A speed=18.2x    frame=17796 fps=436 q=-0.0 size=N/A time=00:12:22.24 bitrate=N/A speed=18.2x    frame=18020 fps=436 q=-0.0 size=N/A time=00:12:31.58 bitrate=N/A speed=18.2x    frame=18247 fps=436 q=-0.0 size=N/A time=00:12:41.05 bitrate=N/A speed=18.2x    frame=18486 fps=437 q=-0.0 size=N/A time=00:12:51.02 bitrate=N/A speed=18.2x    frame=18722 fps=437 q=-0.0 size=N/A time=00:13:00.86 bitrate=N/A speed=18.2x    frame=18975 fps=438 q=-0.0 size=N/A time=00:13:11.41 bitrate=N/A speed=18.2x    frame=19204 fps=438 q=-0.0 size=N/A time=00:13:20.96 bitrate=N/A speed=18.3x    frame=19461 fps=438 q=-0.0 size=N/A time=00:13:31.68 bitrate=N/A speed=18.3x    frame=19704 fps=439 q=-0.0 size=N/A time=00:13:41.82 bitrate=N/A speed=18.3x    frame=19946 fps=439 q=-0.0 size=N/A time=00:13:51.91 bitrate=N/A speed=18.3x    frame=20199 fps=440 q=-0.0 size=N/A time=00:14:02.46 bitrate=N/A speed=18.3x    frame=20432 fps=440 q=-0.0 size=N/A time=00:14:12.18 bitrate=N/A speed=18.3x    frame=20669 fps=440 q=-0.0 size=N/A time=00:14:22.06 bitrate=N/A speed=18.4x    frame=20911 fps=440 q=-0.0 size=N/A time=00:14:32.16 bitrate=N/A speed=18.4x    frame=21123 fps=440 q=-0.0 size=N/A time=00:14:41.00 bitrate=N/A speed=18.4x    frame=21365 fps=440 q=-0.0 size=N/A time=00:14:51.09 bitrate=N/A speed=18.4x    frame=21621 fps=441 q=-0.0 size=N/A time=00:15:01.77 bitrate=N/A speed=18.4x    frame=21862 fps=441 q=-0.0 size=N/A time=00:15:11.82 bitrate=N/A speed=18.4x    frame=22111 fps=442 q=-0.0 size=N/A time=00:15:22.21 bitrate=N/A speed=18.4x    frame=22358 fps=442 q=-0.0 size=N/A time=00:15:32.51 bitrate=N/A speed=18.4x    frame=22593 fps=442 q=-0.0 size=N/A time=00:15:42.31 bitrate=N/A speed=18.4x    frame=22788 fps=442 q=-0.0 size=N/A time=00:15:50.44 bitrate=N/A speed=18.4x    frame=23032 fps=442 q=-0.0 size=N/A time=00:16:00.62 bitrate=N/A speed=18.4x    frame=23278 fps=442 q=-0.0 size=N/A time=00:16:10.88 bitrate=N/A speed=18.4x    frame=23517 fps=442 q=-0.0 size=N/A time=00:16:20.85 bitrate=N/A speed=18.5x    frame=23778 fps=443 q=-0.0 size=N/A time=00:16:31.74 bitrate=N/A speed=18.5x    frame=24002 fps=443 q=-0.0 size=N/A time=00:16:41.08 bitrate=N/A speed=18.5x    frame=24252 fps=443 q=-0.0 size=N/A time=00:16:51.51 bitrate=N/A speed=18.5x    frame=24502 fps=444 q=-0.0 size=N/A time=00:17:01.93 bitrate=N/A speed=18.5x    frame=24749 fps=444 q=-0.0 size=N/A time=00:17:12.23 bitrate=N/A speed=18.5x    frame=24982 fps=444 q=-0.0 size=N/A time=00:17:21.95 bitrate=N/A speed=18.5x    frame=25223 fps=444 q=-0.0 size=N/A time=00:17:32.00 bitrate=N/A speed=18.5x    frame=25462 fps=445 q=-0.0 size=N/A time=00:17:41.97 bitrate=N/A speed=18.5x    frame=25710 fps=445 q=-0.0 size=N/A time=00:17:52.32 bitrate=N/A speed=18.5x    frame=25941 fps=445 q=-0.0 size=N/A time=00:18:01.95 bitrate=N/A speed=18.6x    frame=26177 fps=445 q=-0.0 size=N/A time=00:18:11.84 bitrate=N/A speed=18.6x    frame=26414 fps=445 q=-0.0 size=N/A time=00:18:21.68 bitrate=N/A speed=18.6x    frame=26646 fps=445 q=-0.0 size=N/A time=00:18:31.36 bitrate=N/A speed=18.6x    frame=26875 fps=445 q=-0.0 size=N/A time=00:18:40.91 bitrate=N/A speed=18.6x    frame=27128 fps=445 q=-0.0 size=N/A time=00:18:51.46 bitrate=N/A speed=18.6x    frame=27370 fps=446 q=-0.0 size=N/A time=00:19:01.55 bitrate=N/A speed=18.6x    frame=27606 fps=446 q=-0.0 size=N/A time=00:19:11.40 bitrate=N/A speed=18.6x    frame=27845 fps=446 q=-0.0 size=N/A time=00:19:21.36 bitrate=N/A speed=18.6x    frame=28072 fps=446 q=-0.0 size=N/A time=00:19:30.83 bitrate=N/A speed=18.6x    frame=28303 fps=446 q=-0.0 size=N/A time=00:19:40.47 bitrate=N/A speed=18.6x    frame=28544 fps=446 q=-0.0 size=N/A time=00:19:50.52 bitrate=N/A speed=18.6x    frame=28769 fps=446 q=-0.0 size=N/A time=00:19:59.90 bitrate=N/A speed=18.6x    frame=28992 fps=446 q=-0.0 size=N/A time=00:20:09.20 bitrate=N/A speed=18.6x    frame=29224 fps=446 q=-0.0 size=N/A time=00:20:18.88 bitrate=N/A speed=18.6x    frame=29458 fps=446 q=-0.0 size=N/A time=00:20:28.64 bitrate=N/A speed=18.6x    frame=29681 fps=446 q=-0.0 size=N/A time=00:20:37.94 bitrate=N/A speed=18.6x    frame=29893 fps=445 q=-0.0 size=N/A time=00:20:46.78 bitrate=N/A speed=18.6x    frame=30145 fps=446 q=-0.0 size=N/A time=00:20:57.29 bitrate=N/A speed=18.6x    frame=30391 fps=446 q=-0.0 size=N/A time=00:21:07.55 bitrate=N/A speed=18.6x    frame=30634 fps=446 q=-0.0 size=N/A time=00:21:17.69 bitrate=N/A speed=18.6x    frame=30880 fps=447 q=-0.0 size=N/A time=00:21:27.95 bitrate=N/A speed=18.6x    frame=31121 fps=447 q=-0.0 size=N/A time=00:21:38.00 bitrate=N/A speed=18.6x    frame=31355 fps=447 q=-0.0 size=N/A time=00:21:47.76 bitrate=N/A speed=18.6x    frame=31571 fps=447 q=-0.0 size=N/A time=00:21:56.77 bitrate=N/A speed=18.6x    frame=31786 fps=446 q=-0.0 size=N/A time=00:22:05.74 bitrate=N/A speed=18.6x    frame=31999 fps=446 q=-0.0 size=N/A time=00:22:14.62 bitrate=N/A speed=18.6x    frame=32232 fps=446 q=-0.0 size=N/A time=00:22:24.34 bitrate=N/A speed=18.6x    frame=32452 fps=446 q=-0.0 size=N/A time=00:22:33.51 bitrate=N/A speed=18.6x    frame=32678 fps=446 q=-0.0 size=N/A time=00:22:42.94 bitrate=N/A speed=18.6x    frame=32917 fps=446 q=-0.0 size=N/A time=00:22:52.91 bitrate=N/A speed=18.6x    frame=33128 fps=446 q=-0.0 size=N/A time=00:23:01.71 bitrate=N/A speed=18.6x    frame=33337 fps=445 q=-0.0 size=N/A time=00:23:10.43 bitrate=N/A speed=18.6x    frame=33553 fps=445 q=-0.0 size=N/A time=00:23:19.43 bitrate=N/A speed=18.6x    frame=33797 fps=445 q=-0.0 size=N/A time=00:23:29.61 bitrate=N/A speed=18.6x    frame=34038 fps=446 q=-0.0 size=N/A time=00:23:39.66 bitrate=N/A speed=18.6x    frame=34280 fps=446 q=-0.0 size=N/A time=00:23:49.76 bitrate=N/A speed=18.6x    frame=34491 fps=446 q=-0.0 size=N/A time=00:23:58.56 bitrate=N/A speed=18.6x    frame=34700 fps=445 q=-0.0 size=N/A time=00:24:07.27 bitrate=N/A speed=18.6x    frame=34941 fps=445 q=-0.0 size=N/A time=00:24:17.33 bitrate=N/A speed=18.6x    [Parsed_ssim_10 @ 0000024be36b3180] SSIM Y:0.995494 (23.462512) U:0.995507 (23.474192) V:0.996028 (24.009442) All:0.995585 (23.551000)
[out#0/null @ 0000024be0b45bc0] video:15062KiB audio:274140KiB subtitle:0KiB other streams:0KiB global headers:0KiB muxing overhead: unknown
frame=35053 fps=446 q=-0.0 Lsize=N/A time=00:24:22.00 bitrate=N/A speed=18.6x    
